<svg xmlns="http://www.w3.org/2000/svg" viewBox="0 0 900 1150">
<defs><radialGradient id="dark"><stop stop-color="#645b49"/><stop offset=".55" stop-color="#35383a"/><stop offset="1" stop-color="#171f25"/></radialGradient><pattern id="blocks" width="88" height="56" patternUnits="userSpaceOnUse"><path d="M0 1h88M0 28h88M23 1v27m48 0v28" stroke="#c7b58d" stroke-opacity=".24" stroke-width="3"/><path d="M3 4h80v20H3m-1 8h82v20H2" fill="#b5a184" fill-opacity=".035"/></pattern><radialGradient id="light"><stop stop-color="#e5c070" stop-opacity=".52"/><stop offset="1" stop-color="#d3aa5f" stop-opacity="0"/></radialGradient></defs>
<rect width="900" height="1150" fill="url(#dark)"/><path d="M110 80H755V220H245V370H695V520H180V673H710V835H245V1015H790" fill="none" stroke="#8d8169" stroke-width="122"/><path d="M110 80H755V220H245V370H695V520H180V673H710V835H245V1015H790" fill="none" stroke="#453f36" stroke-width="96"/><path d="M110 80H755V220H245V370H695V520H180V673H710V835H245V1015H790" fill="none" stroke="url(#blocks)" stroke-width="92"/>
<path d="M110 80H755V220H245V370H695V520H180V673H710V835H245V1015H790" fill="none" stroke="#d7bc7c" stroke-opacity=".18" stroke-width="4" stroke-dasharray="12 22"/>
<g><ellipse cx="185" cy="160" rx="74" ry="59" fill="url(#light)"/><rect x="149" y="136" width="72" height="49" rx="6" fill="#34302b" stroke="#bba675" stroke-width="5"/><path d="M158 146h54m-54 12h54m-54 12h54" stroke="#d2bd8d" stroke-opacity=".65" stroke-width="4"/><rect x="175" y="155" width="20" height="23" fill="#907347"/></g><g><ellipse cx="606" cy="294" rx="74" ry="59" fill="url(#light)"/><rect x="570" y="270" width="72" height="49" rx="6" fill="#34302b" stroke="#bba675" stroke-width="5"/><path d="M579 280h54m-54 12h54m-54 12h54" stroke="#d2bd8d" stroke-opacity=".65" stroke-width="4"/><rect x="596" y="289" width="20" height="23" fill="#907347"/></g><g><ellipse cx="279" cy="451" rx="74" ry="59" fill="url(#light)"/><rect x="243" y="427" width="72" height="49" rx="6" fill="#34302b" stroke="#bba675" stroke-width="5"/><path d="M252 437h54m-54 12h54m-54 12h54" stroke="#d2bd8d" stroke-opacity=".65" stroke-width="4"/><rect x="269" y="446" width="20" height="23" fill="#907347"/></g><g><ellipse cx="604" cy="590" rx="74" ry="59" fill="url(#light)"/><rect x="568" y="566" width="72" height="49" rx="6" fill="#34302b" stroke="#bba675" stroke-width="5"/><path d="M577 576h54m-54 12h54m-54 12h54" stroke="#d2bd8d" stroke-opacity=".65" stroke-width="4"/><rect x="594" y="585" width="20" height="23" fill="#907347"/></g><g><ellipse cx="212" cy="754" rx="74" ry="59" fill="url(#light)"/><rect x="176" y="730" width="72" height="49" rx="6" fill="#34302b" stroke="#bba675" stroke-width="5"/><path d="M185 740h54m-54 12h54m-54 12h54" stroke="#d2bd8d" stroke-opacity=".65" stroke-width="4"/><rect x="202" y="749" width="20" height="23" fill="#907347"/></g><g><ellipse cx="608" cy="926" rx="74" ry="59" fill="url(#light)"/><rect x="572" y="902" width="72" height="49" rx="6" fill="#34302b" stroke="#bba675" stroke-width="5"/><path d="M581 912h54m-54 12h54m-54 12h54" stroke="#d2bd8d" stroke-opacity=".65" stroke-width="4"/><rect x="598" y="921" width="20" height="23" fill="#907347"/></g>
<rect width="900" height="1150" fill="url(#light)" opacity=".1"/>
<!-- connected chamber rooms with threshold openings -->
<g stroke="#cabb9a" stroke-width="7" fill="#4f4a40">
<path d="M595 265h164v128H595z"/><path d="M94 448h170v144H94z"/><path d="M611 594h176v150H611z"/><path d="M91 777h178v145H91z"/><path d="M574 925h180v148H574z"/>
</g>
<g fill="url(#blocks)" stroke="#8e806a" stroke-width="4">
<rect x="604" y="274" width="146" height="110" rx="8"/><rect x="103" y="457" width="152" height="126" rx="8"/><rect x="620" y="603" width="158" height="132" rx="8"/><rect x="100" y="786" width="160" height="127" rx="8"/><rect x="583" y="934" width="162" height="130" rx="8"/>
</g>
<g fill="none" stroke="#c9b27e" stroke-width="7">
<path d="M640 295h73v65h-73zM126 481h102v78H126zM653 627h91v83h-91zM134 810h91v78h-91zM614 956h101v84H614z"/>
<path d="M603 327h-26m-321 181h-26m381 161h-25m-310 181h-27m315 195h-30"/>
</g>
</svg>