<svg xmlns="http://www.w3.org/2000/svg" viewBox="0 0 800 500"><defs><linearGradient id="soil" x2="0" y2="1"><stop stop-color="#b7a56f"/><stop offset="1" stop-color="#656044"/></linearGradient><pattern id="grain" width="26" height="26" patternUnits="userSpaceOnUse"><circle cx="5" cy="6" r="1.5" fill="#253d35" opacity=".25"/><path d="M0 22h26" stroke="#f5dc9d" stroke-opacity=".16"/></pattern><g id="pine"><path d="M0 0 34 57h-20l21 35h-70l21-35h-20z" fill="#3e5940" stroke="#dec88b" stroke-width="3"/><path d="M0 82v22" stroke="#513f2d" stroke-width="7"/></g><g id="rock"><path d="M0 50 18 8l26 17 20-22 37 47-9 32H9z" fill="#766c55" stroke="#3d3933" stroke-width="4"/><path d="M18 8 34 52 64 3" fill="none" stroke="#d0bf92" stroke-width="5"/></g><g id="hut"><path d="M0 24 45 0l45 24v39H0z" fill="#b78a53" stroke="#43362a" stroke-width="4"/><path d="M-6 25 45-8l51 33" fill="none" stroke="#64472e" stroke-width="9"/><path d="M37 63V38h16v25" fill="#47352a"/></g></defs>
<symbol id="forest" viewBox="0 0 800 500"><rect width="800" height="500" fill="#51634a"/><rect width="800" height="500" fill="url(#grain)"/><path d="M-20 363Q130 280 225 332t208-12q132-63 198 4t189-13" fill="none" stroke="#c0a873" stroke-width="26"/><path d="M-20 363Q130 280 225 332t208-12q132-63 198 4t189-13" fill="none" stroke="#e4d09a" stroke-width="4"/><use href="#pine" x="100" y="92"/><use href="#pine" x="191" y="63"/><use href="#pine" x="302" y="100"/><use href="#pine" x="575" y="83"/><use href="#pine" x="679" y="160"/><use href="#hut" x="375" y="215"/><path d="M401 278q45-41 87 0l-13 76h-63z" fill="#795c39" stroke="#e4cc8a" stroke-width="5"/><text x="400" y="449" fill="#f1deac" text-anchor="middle" font-family="serif" font-size="22">舊林道・林間小徑</text></symbol>
<symbol id="mountain" viewBox="0 0 800 500"><rect width="800" height="500" fill="#68766b"/><rect width="800" height="500" fill="url(#grain)"/><path d="M0 400 163 165l98 129L421 40l176 252 78-122 125 192v138H0z" fill="#77745f" stroke="#49473e" stroke-width="8"/><path d="m163 165 52 79 45 50m161-254 73 115 102 137m83-99 37 63" fill="none" stroke="#e4d49f" stroke-width="15"/><path d="M0 395q144-70 291-7t253-28q118-53 256 2" fill="none" stroke="#a87b4c" stroke-width="27"/><path d="M0 395q144-70 291-7t253-28q118-53 256 2" fill="none" stroke="#ead49c" stroke-width="4"/><use href="#rock" x="83" y="255"/><use href="#rock" x="613" y="279"/><text x="400" y="456" fill="#fff0c0" text-anchor="middle" font-family="serif" font-size="22">北坡山道・石脊驛路</text></symbol>
<symbol id="river" viewBox="0 0 800 500"><rect width="800" height="500" fill="#738061"/><rect width="800" height="500" fill="url(#grain)"/><path d="M-30 126q122 37 234 116t128 7q15-64 135-17t152 8q49-35 216 25v190q-124-72-213-32t-170 1q-85-39-100 33t-159 3Q107 410-30 335z" fill="#4b8280" stroke="#d8d09b" stroke-width="9"/><path d="M-30 215q166 72 296 82t242 30q130 32 322-2" fill="none" stroke="#b9d7bd" stroke-width="6"/><path d="M100 64q81 145 187 155m313-166Q528 174 493 232m191 47q-74 66-112 140" fill="none" stroke="#ddc58b" stroke-width="9"/><use href="#hut" x="324" y="294"/><use href="#pine" x="89" y="275"/><use href="#pine" x="684" y="96"/><text x="400" y="457" fill="#fff0c0" text-anchor="middle" font-family="serif" font-size="22">柳橋河谷・沿水道路</text></symbol>
<symbol id="coast" viewBox="0 0 800 500"><rect width="800" height="500" fill="#4e7f82"/><path d="M0 0h450q-54 70 12 112t-16 101q-68 64 0 121t-13 166H0z" fill="#b8a56b" stroke="#e2d29f" stroke-width="8"/><path d="M450 0q-54 70 12 112t-16 101q-68 64 0 121t-13 166" fill="none" stroke="#cde0bd" stroke-width="12"/><path d="M500 76q88 24 168-6m-126 73q90 26 185-2m-175 84q110 34 207 7m-185 75q74 34 162 10m-200 75q92 27 166 2" fill="none" stroke="#b7d8ca" stroke-width="6" opacity=".8"/><path d="M91 98q74 30 158 0m-176 73q96 37 177 1m-156 72q92 29 180 4" fill="none" stroke="#d1c18b" stroke-width="8"/><use href="#hut" x="251" y="292"/><text x="400" y="457" fill="#fff0c0" text-anchor="middle" font-family="serif" font-size="22">鹽風海岸・潮汐渡口</text></symbol>
<symbol id="marsh" viewBox="0 0 800 500"><rect width="800" height="500" fill="#68775a"/><rect width="800" height="500" fill="url(#grain)"/><path d="M0 176q102-57 196 8t190-2q92-67 180 4t234-5v160q-108 31-205-9t-177 14q-99 61-212-6T0 366z" fill="#567f73" stroke="#d2c990" stroke-width="7"/><g fill="none" stroke="#c0ad72" stroke-width="14"><path d="M62 37v177m98-151v148m464-163v178m91-152v154M248 36v121m285-135v140"/></g><g fill="#708353"><ellipse cx="104" cy="294" rx="56" ry="22"/><ellipse cx="341" cy="395" rx="69" ry="25"/><ellipse cx="641" cy="300" rx="64" ry="22"/></g><path d="M0 250q170 26 281-9t208 20q138 31 311-9" fill="none" stroke="#d9c690" stroke-width="9"/><text x="400" y="457" fill="#fff0c0" text-anchor="middle" font-family="serif" font-size="22">鹽潮濕地・蘆葦泥徑</text></symbol>
<symbol id="grassland" viewBox="0 0 800 500"><rect width="800" height="500" fill="#91a06b"/><rect width="800" height="500" fill="url(#grain)"/><path d="M0 147q131-65 272 4t255-9q112-75 273-12v183q-158 84-287 12t-269 14Q119 393 0 323z" fill="#aab273"/><path d="M-20 361q141-91 282-1t275-4q124-91 285-8" fill="none" stroke="#b68f59" stroke-width="31"/><path d="M-20 361q141-91 282-1t275-4q124-91 285-8" fill="none" stroke="#ead7a1" stroke-width="5"/><g fill="none" stroke="#536647" stroke-width="5"><path d="m142 271 8-26m0 26 15-22m-15 22-12-17m506 67 7-30m0 30 17-24m-17 24-15-21m-297-5 8-29m0 29 16-23"/></g><use href="#hut" x="338" y="190"/><path d="M0 89q151 12 291-38m122 79q128-46 269-32" fill="none" stroke="#e1d2a3" stroke-width="7" opacity=".8"/><text x="400" y="457" fill="#fff0c0" text-anchor="middle" font-family="serif" font-size="22">群陸原野・旅人驛道</text></symbol>
<symbol id="vault" viewBox="0 0 800 500"><rect width="800" height="500" fill="#292a2a"/><path d="M-10 80h820v340H-10z" fill="#47463d" stroke="#88775a" stroke-width="16"/><path d="M0 100h800M0 398h800M90 80v340m620-340v340" stroke="#2a2b2b" stroke-width="19"/><path d="M120 253q105-149 213 0t220 0q100-149 210 0" fill="none" stroke="#c3a66a" stroke-width="30"/><path d="M120 253q105-149 213 0t220 0q100-149 210 0" fill="none" stroke="#7fa19a" stroke-width="9"/><g fill="#e2c887"><circle cx="166" cy="155" r="8"/><circle cx="386" cy="344" r="8"/><circle cx="599" cy="153" r="8"/></g><text x="400" y="457" fill="#f2ddb0" text-anchor="middle" font-family="serif" font-size="22">石窟深層・回廊入口示意</text></symbol>
<symbol id="crypt" viewBox="0 0 800 500"><rect width="800" height="500" fill="#363439"/><path d="M45 45h710v410H45z" fill="#56504b" stroke="#c5ac79" stroke-width="12"/><path d="M400 65v370M66 250h668M175 60v376m450-376v376" stroke="#383234" stroke-width="22"/><path d="M300 178q0-75 100-75t100 75v104H300z" fill="#403b39" stroke="#d1b87e" stroke-width="9"/><path d="M321 177q0-58 79-58t79 58v74H321z" fill="#202329"/><path d="M157 346h99v52h-99zm388 0h99v52h-99z" fill="#786342" stroke="#d5bd85" stroke-width="6"/><path d="M194 344v-23m407 23v-23" stroke="#f3db92" stroke-width="5"/><text x="400" y="457" fill="#f2ddb0" text-anchor="middle" font-family="serif" font-size="22">沉砂遺跡・古墓入口示意</text></symbol>
<symbol id="flooded-vault" viewBox="0 0 800 500"><rect width="800" height="500" fill="#263438"/><path d="M0 73h800v322H0z" fill="#454943" stroke="#9e8c65" stroke-width="16"/><path d="M70 87v280m660-280v280M70 160h660m-660 73h660m-660 73h660" stroke="#262b2c" stroke-width="18"/><path d="M0 314q104-46 200-4t207 3q112-2 195-32t198 2v217H0z" fill="#44797a" opacity=".88"/><path d="M0 330q104-46 200-4t207 3q112-2 195-32t198 2" fill="none" stroke="#c4d9b9" stroke-width="8"/><circle cx="301" cy="202" r="39" fill="#aa8f59" stroke="#ded09b" stroke-width="8"/><path d="M268 202h66m-33-34v68" stroke="#4a473b" stroke-width="7"/><text x="400" y="457" fill="#f2ddb0" text-anchor="middle" font-family="serif" font-size="22">沉水石窟・水道入口示意</text></symbol></svg>